<?xml version="1.0" encoding="UTF-8" standalone="no"?>
<svg
   xmlns:dc="http://purl.org/dc/elements/1.1/"
   xmlns:cc="http://creativecommons.org/ns#"
   xmlns:rdf="http://www.w3.org/1999/02/22-rdf-syntax-ns#"
   xmlns:svg="http://www.w3.org/2000/svg"
   xmlns="http://www.w3.org/2000/svg"
   viewBox="0 0 344.66666 251.52"
   height="251.52"
   width="344.66666"
   xml:space="preserve"
   id="svg2"
   version="1.1"><metadata
     id="metadata8"><rdf:RDF><cc:Work
         rdf:about=""><dc:format>image/svg+xml</dc:format><dc:type
           rdf:resource="http://purl.org/dc/dcmitype/StillImage" /></cc:Work></rdf:RDF></metadata><defs
     id="defs6" /><g
     transform="matrix(1.3333333,0,0,-1.3333333,0,251.52)"
     id="g10"><g
       transform="translate(81.832,106.834)"
       id="g12"><g
         id="g14"><g
           id="g16"><g
             id="g18"><g
               id="g20"><path
                 id="path22"
                 style="fill:#f2f2ff;fill-opacity:1;fill-rule:nonzero;stroke:#6666ff;stroke-width:1.19553006;stroke-linecap:butt;stroke-linejoin:miter;stroke-miterlimit:10;stroke-dasharray:none;stroke-opacity:1"
                 d="M 17.35312,0 C 17.35312,9.58397 9.58397,17.35312 0,17.35312 -9.58397,17.35312 -17.35312,9.58397 -17.35312,0 c 0,-9.58397 7.76915,-17.35312 17.35312,-17.35312 9.58397,0 17.35312,7.76915 17.35312,17.35312 z" /></g><g
               transform="translate(-12.745,-3.404)"
               id="g24"><g
                 id="g26"><g
                   transform="translate(-69.087,-103.43)"
                   id="g28"><text
                     id="text32"
                     style="font-variant:normal;font-weight:normal;font-size:9.96259975px;font-family:CMMI10;-inkscape-font-specification:CMMI10;writing-mode:lr-tb;fill:#000000;fill-opacity:1;fill-rule:nonzero;stroke:none"
                     transform="matrix(1,0,0,-1,69.087,103.43)"><tspan
                       id="tspan30"
                       y="0"
                       x="0 9.1785431 17.69557">KDF</tspan></text>
<g
                     transform="translate(69.087,103.43)"
                     id="g34" /></g></g><g
                 transform="translate(12.745,3.404)"
                 id="g36" /></g></g><g
             id="g38"><g
               id="g40"><path
                 id="path42"
                 style="fill:#f2fff2;fill-opacity:1;fill-rule:nonzero;stroke:#66ff66;stroke-width:1.19553006;stroke-linecap:butt;stroke-linejoin:miter;stroke-miterlimit:10;stroke-dasharray:none;stroke-opacity:1"
                 d="m -46.89543,0 c 0,9.48268 -7.68704,17.16971 -17.16973,17.16971 -9.48269,0 -17.16972,-7.68703 -17.16972,-17.16971 0,-9.48268 7.68703,-17.16971 17.16972,-17.16971 9.48269,0 17.16973,7.68703 17.16973,17.16971 z" /></g><g
               transform="translate(-76.103,-2.436)"
               id="g44"><g
                 id="g46"><g
                   transform="translate(-5.729,-104.398)"
                   id="g48"><text
                     id="text52"
                     style="font-variant:normal;font-weight:normal;font-size:9.96259975px;font-family:CMR10;-inkscape-font-specification:CMR10;writing-mode:lr-tb;fill:#000000;fill-opacity:1;fill-rule:nonzero;stroke:none"
                     transform="matrix(1,0,0,-1,5.729,104.398)"><tspan
                       id="tspan50"
                       y="0"
                       x="0 3.5974948 9.1327152 14.667936 20.203157">Input</tspan></text>
<g
                     transform="translate(5.729,104.398)"
                     id="g54" /></g></g><g
                 transform="translate(76.103,2.436)"
                 id="g56" /></g></g><g
             id="g58"><g
               id="g60"><path
                 id="path62"
                 style="fill:#fff2f2;fill-opacity:1;fill-rule:nonzero;stroke:#ff6666;stroke-width:1.19553006;stroke-linecap:butt;stroke-linejoin:miter;stroke-miterlimit:10;stroke-dasharray:none;stroke-opacity:1"
                 d="m -23.24614,28.94456 h 46.4923 V 48.7873 h -46.4923 z" /></g><g
               transform="translate(-19.926,36.374)"
               id="g64"><g
                 id="g66"><g
                   transform="translate(-61.906,-143.208)"
                   id="g68"><text
                     id="text72"
                     style="font-variant:normal;font-weight:normal;font-size:9.96259975px;font-family:CMR10;-inkscape-font-specification:CMR10;writing-mode:lr-tb;fill:#000000;fill-opacity:1;fill-rule:nonzero;stroke:none"
                     transform="matrix(1,0,0,-1,61.906,143.208)"><tspan
                       id="tspan70"
                       y="0"
                       x="0 7.7489104 15.359341 25.180471 30.169741 34.597122">KDFkey</tspan></text>
<g
                     transform="translate(61.906,143.208)"
                     id="g74" /></g></g><g
                 transform="translate(19.926,-36.374)"
                 id="g76" /></g></g><g
             id="g78"><g
               id="g80"><path
                 id="path82"
                 style="fill:#fff2f2;fill-opacity:1;fill-rule:nonzero;stroke:#ff6666;stroke-width:1.19553006;stroke-linecap:butt;stroke-linejoin:miter;stroke-miterlimit:10;stroke-dasharray:none;stroke-opacity:1"
                 d="m -39.67494,-48.78731 h 79.34988 v 19.84274 h -79.34988 z" /></g><g
               transform="translate(-36.354,-41.357)"
               id="g84"><g
                 id="g86"><g
                   transform="translate(-45.478,-65.477)"
                   id="g88"><text
                     id="text92"
                     style="font-variant:normal;font-weight:normal;font-size:9.96259975px;font-family:CMR10;-inkscape-font-specification:CMR10;writing-mode:lr-tb;fill:#000000;fill-opacity:1;fill-rule:nonzero;stroke:none"
                     transform="matrix(1,0,0,-1,45.478,65.477)"><tspan
                       id="tspan90"
                       y="0"
                       x="0 7.4719501 11.899329 17.157589 29.540106 37.289017 44.899445 58.038124 63.017429 67.444809">NextKDFkey</tspan></text>
<g
                     transform="translate(45.478,65.477)"
                     id="g94" /></g></g><g
                 transform="translate(36.354,41.357)"
                 id="g96" /></g></g><g
             id="g98"><g
               id="g100"><path
                 id="path102"
                 style="fill:#fff2f2;fill-opacity:1;fill-rule:nonzero;stroke:#ff6666;stroke-width:1.19553006;stroke-linecap:butt;stroke-linejoin:miter;stroke-miterlimit:10;stroke-dasharray:none;stroke-opacity:1"
                 d="m 40.87045,-48.78731 h 60.44014 v 19.84274 H 40.87045 Z" /></g><g
               transform="translate(44.19,-41.357)"
               id="g104"><g
                 id="g106"><g
                   transform="translate(-126.022,-65.477)"
                   id="g108"><text
                     id="text112"
                     style="font-variant:normal;font-weight:normal;font-size:9.96259975px;font-family:CMR10;-inkscape-font-specification:CMR10;writing-mode:lr-tb;fill:#000000;fill-opacity:1;fill-rule:nonzero;stroke:none"
                     transform="matrix(1,0,0,-1,126.022,65.477)"><tspan
                       id="tspan110"
                       y="0"
                       x="0 9.1327152 13.560095 17.489344 21.418594 26.399893 31.381193 39.126118 44.115391 48.54277">Messagekey</tspan></text>
<g
                     transform="translate(126.022,65.477)"
                     id="g114" /></g></g><g
                 transform="translate(-44.19,41.357)"
                 id="g116" /></g></g><path
             id="path118"
             style="fill:none;stroke:#000000;stroke-width:0.3985;stroke-linecap:butt;stroke-linejoin:miter;stroke-miterlimit:10;stroke-dasharray:none;stroke-opacity:1"
             d="M 0,28.3468 V 18.40915" /><g
             transform="rotate(-90,9.204575,9.204575)"
             id="g120"><g
               id="g122"><path
                 id="path124"
                 style="fill:none;stroke:#000000;stroke-width:0.31878999;stroke-linecap:round;stroke-linejoin:round;stroke-miterlimit:10;stroke-dasharray:none;stroke-opacity:1"
                 d="M -1.19551,1.59401 C -1.09587,0.99626 0,0.09961 0.29886,0 0,-0.09961 -1.09587,-0.99626 -1.19551,-1.59401" /></g></g><path
             id="path126"
             style="fill:none;stroke:#000000;stroke-width:0.3985;stroke-linecap:butt;stroke-linejoin:miter;stroke-miterlimit:10;stroke-dasharray:none;stroke-opacity:1"
             d="m -46.29768,0 h 27.88853" /><g
             transform="translate(-18.40915)"
             id="g128"><g
               id="g130"><path
                 id="path132"
                 style="fill:none;stroke:#000000;stroke-width:0.31878999;stroke-linecap:round;stroke-linejoin:round;stroke-miterlimit:10;stroke-dasharray:none;stroke-opacity:1"
                 d="M -1.19551,1.59401 C -1.09587,0.99626 0,0.09961 0.29886,0 0,-0.09961 -1.09587,-0.99626 -1.19551,-1.59401" /></g></g><path
             id="path134"
             style="fill:none;stroke:#000000;stroke-width:0.3985;stroke-linecap:butt;stroke-linejoin:miter;stroke-miterlimit:10;stroke-dasharray:none;stroke-opacity:1"
             d="m 0,-17.95087 v -9.93765" /><g
             transform="rotate(-90,-13.94426,-13.94426)"
             id="g136"><g
               id="g138"><path
                 id="path140"
                 style="fill:none;stroke:#000000;stroke-width:0.31878999;stroke-linecap:round;stroke-linejoin:round;stroke-miterlimit:10;stroke-dasharray:none;stroke-opacity:1"
                 d="M -1.19551,1.59401 C -1.09587,0.99626 0,0.09961 0.29886,0 0,-0.09961 -1.09587,-0.99626 -1.19551,-1.59401" /></g></g><path
             id="path142"
             style="fill:none;stroke:#000000;stroke-width:0.3985;stroke-linecap:butt;stroke-linejoin:miter;stroke-miterlimit:10;stroke-dasharray:none;stroke-opacity:1"
             d="m 0,-50.20448 c 24.26639,-42.03076 78.00934,-56.4312 120.0401,-32.1648 42.03076,24.26641 56.43121,78.00934 32.16481,120.04008 -15.69556,27.18558 -44.71135,43.93767 -76.10246,43.93767 -25.97266,0 -50.62073,-11.49377 -67.02117,-31.03875" /><g
             transform="matrix(-0.64279,-0.76604,0.76604,-0.64279,9.0813,50.56973)"
             id="g144"><g
               id="g146"><path
                 id="path148"
                 style="fill:none;stroke:#000000;stroke-width:0.31878999;stroke-linecap:round;stroke-linejoin:round;stroke-miterlimit:10;stroke-dasharray:none;stroke-opacity:1"
                 d="M -1.19551,1.59401 C -1.09587,0.99626 0,0.09961 0.29886,0 0,-0.09961 -1.09587,-0.99626 -1.19551,-1.59401" /></g></g></g></g></g></g></svg>
